<?xml version="1.0" encoding="UTF-8"?>
<svg width="542" height="174" xmlns="http://www.w3.org/2000/svg" xmlns:svg="http://www.w3.org/2000/svg" version="1.1" xml:space="preserve">
 <metadata id="metadata8">image/svg+xml</metadata>
 <defs id="defs6">
  <clipPath clipPathUnits="userSpaceOnUse" id="clipPath20">
   <path d="m-158.465988,844.347656l960.000046,0l0,-560.000275l-960.000046,0l0,560.000275z" id="path18"/>
  </clipPath>
  <linearGradient id="linearGradient62" spreadMethod="pad" x1="0.791807" x2="-0.118375" y1="1.179996" y2="-0.4434">
   <stop id="stop56" offset="0" stop-color="#d62cff"/>
   <stop id="stop58" offset="0.10747" stop-color="#d62cff"/>
   <stop id="stop60" offset="1" stop-color="#1036d2"/>
  </linearGradient>
  <linearGradient id="linearGradient84" spreadMethod="pad" x1="1.052482" x2="0.142326" y1="1.325906" y2="-0.297488">
   <stop id="stop78" offset="0" stop-color="#d62cff"/>
   <stop id="stop80" offset="0.10747" stop-color="#d62cff"/>
   <stop id="stop82" offset="1" stop-color="#1036d2"/>
  </linearGradient>
  <linearGradient id="linearGradient106" spreadMethod="pad" x1="2.553054" x2="-1.632152" y1="3.284891" y2="-1.907349">
   <stop id="stop100" offset="0" stop-color="#d62cff"/>
   <stop id="stop102" offset="0.10747" stop-color="#d62cff"/>
   <stop id="stop104" offset="1" stop-color="#1036d2"/>
  </linearGradient>
  <linearGradient id="linearGradient128" spreadMethod="pad" x1="1.164467" x2="-0.61508" y1="2.387245" y2="-2.785363">
   <stop id="stop122" offset="0" stop-color="#d62cff"/>
   <stop id="stop124" offset="0.10747" stop-color="#d62cff"/>
   <stop id="stop126" offset="1" stop-color="#1036d2"/>
  </linearGradient>
  <linearGradient id="linearGradient150" spreadMethod="pad" x1="1.486106" x2="-0.293179" y1="3.410605" y2="-1.761453">
   <stop id="stop144" offset="0" stop-color="#d62cff"/>
   <stop id="stop146" offset="0.10747" stop-color="#d62cff"/>
   <stop id="stop148" offset="1" stop-color="#1036d2"/>
  </linearGradient>
  <linearGradient id="linearGradient172" spreadMethod="pad" x1="2.328807" x2="-1.855571" y1="2.532022" y2="-2.661689">
   <stop id="stop166" offset="0" stop-color="#d62cff"/>
   <stop id="stop168" offset="0.10747" stop-color="#d62cff"/>
   <stop id="stop170" offset="1" stop-color="#1036d2"/>
  </linearGradient>
 </defs>
 <g class="layer">
  <title>Layer 1</title>
  <g id="g10" transform="matrix(1.33333 0 0 -1.33333 0 746.667)">
   <g id="g14">
    <g clip-path="url(#clipPath20)" id="g16">
     <g id="g22" transform="translate(445.571 245.92)">
      <path d="m-276.716003,215.097488c-2.951996,0 -5.725006,0.559006 -8.319,1.677002c-2.593994,1.119003 -4.868011,2.654007 -6.820007,4.606995c-1.953979,1.952011 -3.488983,4.227005 -4.606995,6.820007c-1.117981,2.594986 -1.677002,5.367996 -1.677002,8.319l0,14.222992l-5.948975,0l0,12.164932l5.948975,0l0,19.141937l12.165009,0l0,-19.141937l18.515991,0l0,-12.164932l-18.515991,0l0,-14.222992c0,-1.281998 0.238007,-2.48201 0.714996,-3.600006c0.47699,-1.117996 1.132996,-2.095001 1.967987,-2.929001c0.835022,-0.835999 1.819,-1.498993 2.951996,-1.990997c1.133026,-0.492004 2.341034,-0.737 3.623016,-0.737l9.257996,0l0,-12.166l-9.257996,0z" fill="#00255b" fill-rule="nonzero" id="path24"/>
     </g>
     <g id="g26" transform="translate(531.3 263.229)">
      <path d="m-276.716003,215.097488c0,-2.50499 -0.47699,-4.869003 -1.431,-7.089005c-0.954987,-2.221985 -2.259003,-4.153 -3.912994,-5.791992c-1.654999,-1.639999 -3.593994,-2.938004 -5.815002,-3.891998c-2.221008,-0.953003 -4.598999,-1.431 -7.132996,-1.431c-2.266998,0 -4.444,0.395996 -6.529999,1.186005c-2.088013,0.789993 -3.981018,1.944992 -5.679993,3.465988c-1.671021,-1.520996 -3.542023,-2.675995 -5.614014,-3.465988c-2.071991,-0.790009 -4.255981,-1.186005 -6.551971,-1.186005c-2.534027,0 -4.905029,0.477997 -7.111023,1.431c-2.207001,0.953995 -4.137024,2.251999 -5.791992,3.891998c-1.654022,1.638992 -2.959015,3.570007 -3.913025,5.791992c-0.954987,2.220001 -1.431,4.584015 -1.431,7.089005l0,30.501999l12.209015,0l0,-30.501999c0,-0.834991 0.157013,-1.617996 0.470001,-2.348999c0.312988,-0.729996 0.744995,-1.372009 1.296997,-1.921997c0.552002,-0.552994 1.192017,-0.985001 1.923004,-1.296997c0.731018,-0.313995 1.513,-0.470001 2.348022,-0.470001c0.834991,0 1.624969,0.156006 2.370972,0.470001c0.744995,0.311996 1.401001,0.744003 1.967987,1.296997c0.56604,0.549988 1.006012,1.192001 1.319031,1.921997c0.312988,0.731003 0.469971,1.514008 0.469971,2.348999l0,30.501999l12.165009,0l0,-30.501999c0,-0.834991 0.163025,-1.617996 0.492004,-2.348999c0.328003,-0.729996 0.766998,-1.372009 1.319,-1.921997c0.552002,-0.552994 1.192993,-0.985001 1.923004,-1.296997c0.730988,-0.313995 1.513,-0.470001 2.348999,-0.470001c0.833984,0 1.623993,0.156006 2.369995,0.470001c0.744995,0.311996 1.393005,0.744003 1.945007,1.296997c0.552002,0.549988 0.990997,1.192001 1.320007,1.921997c0.327972,0.731003 0.491974,1.514008 0.491974,2.348999l0,30.501999l12.165009,0l0,-30.501999z" fill="#00255b" fill-rule="nonzero" id="path28"/>
     </g>
     <g id="g30" transform="translate(563.716 306.835)">
      <path d="m-276.716003,215.097488c0,-1.132996 -0.21701,-2.192001 -0.64801,-3.175003c-0.432983,-0.983994 -1.021973,-1.841995 -1.766998,-2.571991c-0.746002,-0.731003 -1.617981,-1.312012 -2.615997,-1.744003c-1,-0.432999 -2.06601,-0.649002 -3.197998,-0.649002c-1.134003,0 -2.200012,0.216003 -3.197998,0.649002c-1,0.431992 -1.863983,1.013 -2.593994,1.744003c-0.730988,0.729996 -1.312988,1.587997 -1.744995,2.571991c-0.432007,0.983002 -0.64801,2.042007 -0.64801,3.175003c0,1.102997 0.216003,2.154007 0.64801,3.154007c0.432007,0.997986 1.014008,1.862991 1.744995,2.592987c0.730011,0.730011 1.593994,1.312012 2.593994,1.744995c0.997986,0.432022 2.063995,0.64801 3.197998,0.64801c1.131989,0 2.197998,-0.215988 3.197998,-0.64801c0.998016,-0.432983 1.869995,-1.014984 2.615997,-1.744995c0.745026,-0.729996 1.334015,-1.595001 1.766998,-2.592987c0.431,-1 0.64801,-2.05101 0.64801,-3.154007" fill="#b631f7" fill-rule="nonzero" id="path32"/>
     </g>
     <path d="m284.898041,461.017365l-12.299988,0l0,47.901001l12.299988,0l0,-47.901001z" fill="#00255b" fill-rule="nonzero" id="path34"/>
     <g id="g36" transform="translate(592.287 245.92)">
      <path d="m-276.716003,215.097488l-12.209991,0l0,47.900925l2.951996,0l4.024994,-4.652008c1.968018,1.789001 4.196991,3.16803 6.687012,4.137024c2.488983,0.968994 5.090973,1.453979 7.803986,1.453979c2.921997,0 5.680023,-0.55899 8.273987,-1.676971c2.595032,-1.119019 4.860016,-2.654053 6.799026,-4.607025c1.938004,-1.952881 3.465988,-4.233932 4.584,-6.842926c1.117996,-2.609985 1.677002,-5.388992 1.677002,-8.341003l0,-27.371994l-12.210022,0l0,27.371994c0,1.252014 -0.238983,2.437012 -0.716003,3.556c-0.47699,1.118011 -1.132996,2.093994 -1.96698,2.929016c-0.834991,0.834991 -1.805023,1.490005 -2.907013,1.968002c-1.104004,0.475998 -2.281006,0.714996 -3.533997,0.714996c-1.281982,0 -2.48999,-0.238998 -3.622986,-0.714996c-1.132996,-0.477997 -2.117004,-1.133011 -2.951019,-1.968002c-0.834991,-0.835022 -1.491974,-1.811005 -1.967987,-2.929016c-0.477997,-1.118988 -0.716003,-2.303986 -0.716003,-3.556l0,-27.371994z" fill="#00255b" fill-rule="nonzero" id="path38"/>
     </g>
     <g id="g40">
      <path d="m398.840271,466.60733c-0.984009,-0.893982 -2.035004,-1.737 -3.153015,-2.527008c-1.117981,-0.789978 -2.289001,-1.476013 -3.510986,-2.057007c-1.222992,-0.580994 -2.481995,-1.044006 -3.778992,-1.386993c-1.296997,-0.34201 -2.617004,-0.514008 -3.958008,-0.514008c-2.951996,0 -5.725006,0.522034 -8.319,1.565002c-2.593994,1.044006 -4.868988,2.527039 -6.820984,4.451019c-1.953003,1.923004 -3.489014,4.263 -4.606018,7.022003c-1.118988,2.756989 -1.677979,5.851013 -1.677979,9.279968l0,26.477051l12.165009,0l0,-26.477051c0,-1.609985 0.245972,-3.048981 0.737976,-4.315979c0.492004,-1.266998 1.156006,-2.334015 1.990997,-3.197998c0.834015,-0.86499 1.811005,-1.520996 2.929016,-1.968018c1.117981,-0.44696 2.317993,-0.669983 3.600983,-0.669983c1.252014,0 2.437012,0.290009 3.554993,0.872009c1.118011,0.580994 2.094025,1.347992 2.929016,2.302979c0.834991,0.953003 1.490997,2.035034 1.968994,3.243011c0.476013,1.207001 0.714996,2.452026 0.714996,3.733978l0,26.477051l12.209991,0l0,-47.900024l-2.951996,0l-4.024994,5.589996z" fill="#00255b" fill-rule="nonzero" id="path42"/>
     </g>
    </g>
   </g>
   <g id="g44">
    <g id="g46">
     <g id="g52">
      <g id="g54">
       <path d="m53.25502,558.135681l-48.338987,-27.908997c-2.569,-1.483032 -4.166031,-4.249023 -4.166031,-7.220032l0,0l0,-55.818298c0,-0.144012 0.003998,-0.289001 0.012009,-0.433014l0,0l18.415009,10.632996c-0.057005,0.433014 -0.085999,0.871002 -0.085999,1.306l0,0l0,32.804993c0,3.540283 1.902008,6.835327 4.963989,8.602356l0,0l28.403013,16.39801c1.507996,0.869995 3.226013,1.329956 4.96701,1.329956l0,0c1.741974,0 3.458984,-0.459961 4.964996,-1.329956l0,0l28.406013,-16.39801c0.381989,-0.218994 0.748993,-0.465027 1.095978,-0.734009l0,0l18.412018,10.632996c-0.122009,0.078979 -0.244995,0.154968 -0.369019,0.226013l0,0l-48.342995,27.908997c-1.263,0.72998 -2.70401,1.115967 -4.166992,1.115967l0,0c-1.460999,0 -2.903015,-0.385986 -4.170013,-1.115967" fill="url(#linearGradient62)" id="path64"/>
      </g>
     </g>
    </g>
   </g>
   <g id="g66">
    <g id="g68">
     <g id="g74">
      <g id="g76">
       <path d="m95.679008,512.806641c0.057007,-0.433105 0.085999,-0.8703 0.085999,-1.307312l0,0l0,-32.804993c0,-3.537994 -1.902985,-6.832977 -4.967987,-8.600983l0,0l-28.407021,-16.39798c-1.505981,-0.869019 -3.222992,-1.330017 -4.964996,-1.330017l0,0c-1.740997,0 -3.458984,0.459991 -4.96698,1.330017l0,0l-28.402021,16.39798c-0.374983,0.214996 -0.739973,0.459991 -1.091993,0.731018l0,0l-18.415987,-10.630005c0.121964,-0.07901 0.244995,-0.154022 0.368973,-0.226013l0,0l48.338026,-27.908997c1.266998,-0.730011 2.708984,-1.115997 4.169983,-1.115997l0,0c1.463013,0 2.904022,0.385986 4.167023,1.115997l0,0l48.342995,27.908997c2.571991,1.484009 4.170013,4.251007 4.170013,7.220001l0,0l0,55.818298c0,0.14502 -0.003021,0.289001 -0.01001,0.433044l0,0l-18.416016,-10.633057z" fill="url(#linearGradient84)" id="path86"/>
      </g>
     </g>
    </g>
   </g>
   <g id="g88">
    <g id="g90">
     <g id="g96">
      <g id="g98">
       <path d="m26.665985,481.710358l22.06102,12.737c-0.017014,0.212006 -0.024994,0.428986 -0.024994,0.649994l0,0c0,0.221008 0.00798,0.440002 0.024994,0.653015l0,0l-22.06102,12.737976l0,-26.777985z" fill="url(#linearGradient106)" id="path108"/>
      </g>
     </g>
    </g>
   </g>
   <g id="g110">
    <g id="g112">
     <g id="g118">
      <g id="g120">
       <path d="m56.246017,529.939697l-25.791992,-14.891052l22.062981,-12.742279c1.446022,0.992981 3.132027,1.514984 4.909004,1.514984l0,0c1.777008,0 3.46402,-0.522003 4.915009,-1.513977l0,0l22.061012,12.737244l-25.799019,14.895081c-0.358978,0.205994 -0.767014,0.315979 -1.177002,0.315979l0,0c-0.412994,0 -0.821991,-0.109985 -1.179993,-0.315979" fill="url(#linearGradient128)" id="path130"/>
      </g>
     </g>
    </g>
   </g>
   <g id="g132">
    <g id="g134">
     <g id="g140">
      <g id="g142">
       <path d="m57.42601,486.373352c-1.772018,0 -3.457001,0.522003 -4.907013,1.514008l0,0l-22.069012,-12.737l25.795025,-14.894012c0.359009,-0.207001 0.768005,-0.316986 1.181,-0.316986l0,0c0.409988,0 0.817993,0.109985 1.175995,0.31601l0,0l25.804024,14.894989l-22.069008,12.740997c-1.447998,-0.994995 -3.134003,-1.518005 -4.911011,-1.518005" fill="url(#linearGradient150)" id="path152"/>
      </g>
     </g>
    </g>
   </g>
   <g id="g154">
    <g id="g156">
     <g id="g162">
      <g id="g164">
       <path d="m66.125023,495.747345c0.016998,-0.212006 0.024994,-0.427002 0.024994,-0.649994l0,0c0,-0.218994 -0.007996,-0.434998 -0.024994,-0.645996l0,0l22.065002,-12.737l0,26.769989l-22.065002,-12.737z" fill="url(#linearGradient172)" id="path174"/>
      </g>
     </g>
    </g>
   </g>
  </g>
 </g>
</svg>